<?xml version="1.0" encoding="UTF-8" standalone="no"?>
<!DOCTYPE svg PUBLIC "-//W3C//DTD SVG 1.1//EN" "http://www.w3.org/Graphics/SVG/1.1/DTD/svg11.dtd">
<svg version="1.1" 
  xmlns="http://www.w3.org/2000/svg" 
  xmlns:xlink="http://www.w3.org/1999/xlink" preserveAspectRatio="xMidYMid meet" viewBox="0 0 1024 1024" width="1024" height="1024" style="stroke-width: 0px; background-color: #fff;">
  <defs>
    <path d="M367.57 185.19L369.68 185.31L371.79 185.47L373.88 185.68L375.97 185.93L378.04 186.24L380.11 186.58L382.16 186.98L384.2 187.42L386.23 187.9L388.25 188.43L390.25 189.01L392.24 189.62L394.21 190.29L396.16 190.99L398.1 191.74L400.01 192.53L401.92 193.37L403.8 194.24L405.66 195.16L407.5 196.12L409.32 197.12L411.11 198.16L412.89 199.24L414.64 200.36L416.36 201.52L418.06 202.72L419.74 203.96L421.39 205.24L423.01 206.55L424.6 207.9L426.17 209.3L427.71 210.72L429.21 212.19L430.69 213.69L432.13 215.23L433.54 216.8L434.92 218.41L436.27 220.06L438.6 223.1L440.79 226.21L442.83 229.38L444.73 232.6L446.49 235.88L448.11 239.21L449.58 242.57L450.91 245.98L452.1 249.43L453.16 252.9L454.07 256.4L454.84 259.93L455.47 263.47L455.96 267.03L456.32 270.6L456.54 274.17L456.62 277.75L456.56 281.32L456.37 284.88L456.04 288.44L455.57 291.98L454.97 295.5L454.24 299L453.37 302.47L452.37 305.9L451.24 309.3L449.97 312.67L448.58 315.98L447.05 319.25L445.38 322.46L443.59 325.62L441.67 328.72L439.62 331.75L437.44 334.71L435.13 337.6L432.69 340.4L430.12 343.13L427.43 345.77L424.61 348.32L421.66 350.77L423.06 353.69L424.52 356.65L426.04 359.63L427.61 362.64L429.24 365.67L430.93 368.73L432.67 371.8L434.47 374.89L436.31 377.99L438.2 381.1L440.14 384.21L442.13 387.33L444.16 390.45L446.23 393.57L448.34 396.68L450.49 399.79L452.68 402.88L454.91 405.97L457.17 409.03L459.46 412.08L461.79 415.1L464.14 418.1L466.53 421.08L468.94 424.02L471.37 426.93L473.83 429.8L476.32 432.63L478.82 435.42L481.34 438.17L483.88 440.87L486.43 443.52L489 446.12L491.58 448.66L494.17 451.14L496.77 453.56L499.38 455.92L502 458.2L504.62 460.42L507.24 462.57L509.86 464.63L512.9 466.92L516.01 469.14L519.17 471.31L522.38 473.43L525.65 475.48L528.97 477.49L532.34 479.43L535.76 481.32L539.22 483.16L542.73 484.93L546.27 486.66L549.85 488.32L553.47 489.93L557.12 491.49L560.8 492.98L564.5 494.43L568.24 495.81L572 497.14L575.77 498.42L579.57 499.63L583.39 500.8L587.21 501.9L591.06 502.95L594.91 503.95L598.76 504.88L602.63 505.77L606.49 506.59L610.36 507.36L614.22 508.08L618.08 508.73L621.93 509.34L625.78 509.88L629.61 510.37L633.43 510.81L637.23 511.18L641.02 511.51L644.78 511.77L648.52 511.98L652.24 512.14L655.93 512.23L655.93 513.17L657.18 511.05L658.48 508.97L659.84 506.92L661.24 504.92L662.69 502.95L664.19 501.02L665.74 499.13L667.33 497.29L668.96 495.48L670.65 493.72L672.37 492L674.13 490.33L675.94 488.71L677.79 487.13L679.67 485.6L681.59 484.11L683.55 482.68L685.55 481.3L687.58 479.97L689.65 478.69L691.75 477.47L693.88 476.3L696.04 475.18L698.23 474.12L700.46 473.12L702.71 472.18L704.98 471.29L707.29 470.47L709.62 469.71L711.97 469L714.35 468.36L716.75 467.79L719.18 467.27L721.62 466.83L724.08 466.45L726.57 466.13L729.07 465.89L731.58 465.71L734.12 465.6L736.66 465.57L740.53 465.65L744.35 465.88L748.13 466.26L751.86 466.78L755.55 467.45L759.18 468.27L762.75 469.22L766.26 470.3L769.71 471.52L773.1 472.87L776.42 474.34L779.67 475.94L782.84 477.66L785.94 479.49L788.96 481.44L791.89 483.5L794.75 485.67L797.51 487.95L800.18 490.33L802.76 492.81L805.24 495.39L807.61 498.06L809.89 500.82L812.06 503.67L814.12 506.61L816.07 509.62L817.91 512.72L819.63 515.9L821.22 519.14L822.7 522.46L824.05 525.85L825.26 529.3L826.35 532.82L827.3 536.39L828.11 540.02L828.78 543.7L829.31 547.43L829.69 551.21L829.92 555.03L830 558.9L829.92 562.76L829.69 566.59L829.31 570.37L828.78 574.1L828.11 577.78L827.3 581.41L826.35 584.98L825.26 588.5L824.05 591.95L822.7 595.33L821.22 598.65L819.63 601.9L817.91 605.08L816.07 608.17L814.12 611.19L812.06 614.13L809.89 616.98L807.61 619.74L805.24 622.41L802.76 624.99L800.18 627.47L797.51 629.85L794.75 632.12L791.89 634.29L788.96 636.36L785.94 638.31L782.84 640.14L779.67 641.86L776.42 643.46L773.1 644.93L769.71 646.28L766.26 647.5L762.75 648.58L759.18 649.53L755.55 650.34L751.86 651.01L748.13 651.54L744.35 651.92L740.53 652.15L736.66 652.23L734.12 652.19L731.59 652.09L729.07 651.91L726.58 651.66L724.1 651.35L721.65 650.97L719.21 650.52L716.8 650.01L714.41 649.43L712.04 648.79L709.7 648.09L707.38 647.33L705.08 646.5L702.82 645.62L700.58 644.67L698.37 643.67L696.19 642.61L694.03 641.5L691.91 640.33L689.82 639.1L687.76 637.83L685.74 636.5L683.75 635.11L681.8 633.68L679.88 632.2L677.99 630.67L676.15 629.09L674.34 627.47L672.57 625.79L670.84 624.08L669.15 622.32L667.51 620.51L665.9 618.67L664.34 616.78L662.83 614.85L661.35 612.88L659.93 610.87L658.55 608.83L657.21 606.75L655.93 604.63L655.93 605.56L652.62 605.51L649.27 605.42L645.89 605.3L642.47 605.14L639.03 604.95L635.55 604.72L632.05 604.46L628.52 604.16L624.98 603.83L621.41 603.46L617.83 603.05L614.23 602.61L610.62 602.14L607.01 601.62L603.38 601.08L599.75 600.49L596.12 599.88L592.49 599.22L588.86 598.53L585.23 597.81L581.61 597.04L578 596.25L574.41 595.41L570.82 594.54L567.25 593.64L563.71 592.7L560.18 591.72L556.68 590.7L553.2 589.65L549.75 588.57L546.33 587.44L542.94 586.29L539.59 585.09L536.28 583.86L533.01 582.59L529.78 581.28L526.59 579.94L523.46 578.56L520.37 577.15L517.33 575.7L514.33 574.21L511.34 572.71L508.37 571.17L505.42 569.61L502.48 568.02L499.56 566.41L496.65 564.77L493.76 563.11L490.88 561.42L488.03 559.7L485.18 557.96L482.36 556.19L479.55 554.4L476.75 552.59L473.98 550.74L471.22 548.88L468.47 546.99L465.74 545.07L463.03 543.13L460.34 541.17L457.66 539.18L455 537.16L452.36 535.12L449.73 533.06L447.12 530.97L444.52 528.86L441.94 526.73L439.38 524.57L436.84 522.39L434.31 520.18L431.81 517.95L429.31 515.7L426.84 513.42L424.38 511.12L421.94 508.8L419.52 506.45L417.11 504.08L414.72 501.69L412.35 499.27L410 496.83L410 665.3L412.14 666.57L414.25 667.9L416.31 669.28L418.33 670.7L420.3 672.18L422.23 673.7L424.11 675.28L425.95 676.89L427.74 678.55L429.48 680.26L431.17 682.01L432.82 683.79L434.42 685.62L435.96 687.49L437.46 689.39L438.9 691.34L440.3 693.31L441.64 695.33L442.93 697.37L444.16 699.45L445.34 701.56L446.46 703.7L447.53 705.87L448.55 708.06L449.5 710.29L450.4 712.54L451.24 714.81L452.02 717.11L452.74 719.43L453.4 721.77L454.01 724.14L454.55 726.52L455.02 728.92L455.44 731.33L455.79 733.77L456.08 736.21L456.3 738.68L456.46 741.15L456.56 743.64L456.58 746.13L456.49 749.97L456.25 753.76L455.86 757.51L455.33 761.21L454.64 764.87L453.82 768.47L452.86 772.02L451.76 775.52L450.54 778.95L449.18 782.31L447.69 785.61L446.09 788.85L444.36 792L442.52 795.09L440.56 798.09L438.49 801.01L436.32 803.85L434.03 806.6L431.65 809.26L429.17 811.82L426.59 814.29L423.92 816.66L421.16 818.93L418.31 821.09L415.37 823.14L412.36 825.09L409.27 826.91L406.1 828.62L402.86 830.21L399.55 831.68L396.18 833.02L392.74 834.23L389.24 835.3L385.69 836.25L382.08 837.05L378.42 837.71L374.71 838.23L370.96 838.6L367.16 838.82L363.33 838.89L359.47 838.81L355.64 838.58L351.86 838.2L348.13 837.68L344.45 837L340.82 836.19L337.25 835.24L333.73 834.16L330.28 832.94L326.89 831.59L323.57 830.12L320.33 828.52L317.15 826.8L314.05 824.97L311.04 823.02L308.1 820.96L305.25 818.78L302.49 816.51L299.82 814.13L297.24 811.65L294.76 809.07L292.38 806.4L290.1 803.64L287.93 800.79L285.87 797.85L283.92 794.83L282.08 791.74L280.37 788.56L278.77 785.31L277.3 781.99L275.95 778.61L274.73 775.16L273.65 771.64L272.7 768.07L271.88 764.44L271.21 760.76L270.68 757.03L270.3 753.25L270.07 749.42L270 745.56L270.03 743.01L270.14 740.48L270.32 737.97L270.56 735.48L270.87 733L271.25 730.54L271.7 728.11L272.21 725.7L272.78 723.31L273.42 720.94L274.11 718.6L274.87 716.29L275.69 714L276.57 711.73L277.5 709.5L278.49 707.29L279.54 705.12L280.64 702.97L281.8 700.86L283.01 698.78L284.26 696.73L285.57 694.72L286.93 692.74L288.34 690.79L289.8 688.89L291.3 687.02L292.85 685.19L294.44 683.4L296.08 681.65L297.76 679.94L299.48 678.27L301.24 676.64L303.04 675.06L304.88 673.53L306.75 672.04L308.67 670.59L310.62 669.19L312.6 667.85L314.61 666.55L316.66 665.3L316.66 359.17L314.53 357.9L312.44 356.58L310.39 355.21L308.39 353.79L306.43 352.32L304.51 350.81L302.63 349.25L300.81 347.64L299.03 345.99L297.29 344.3L295.6 342.57L293.96 340.79L292.37 338.98L290.83 337.12L289.34 335.23L287.89 333.3L286.5 331.34L285.16 329.35L283.88 327.32L282.64 325.25L281.46 323.16L280.33 321.04L279.26 318.89L278.24 316.71L277.28 314.5L276.38 312.27L275.53 310.01L274.74 307.73L274.01 305.42L273.34 303.1L272.72 300.76L272.17 298.39L271.68 296.01L271.25 293.61L270.88 291.19L270.58 288.76L270.34 286.32L270.16 283.86L270.04 281.39L270 278.91L270.07 275.04L270.3 271.21L270.68 267.43L271.21 263.69L271.88 260L272.7 256.37L273.65 252.79L274.73 249.26L275.95 245.8L277.3 242.4L278.77 239.07L280.37 235.8L282.08 232.61L283.92 229.5L285.87 226.47L287.93 223.51L290.1 220.65L292.38 217.87L294.76 215.18L297.24 212.58L299.82 210.09L302.49 207.69L305.25 205.4L308.1 203.21L311.04 201.13L314.05 199.16L317.15 197.31L320.33 195.58L323.57 193.97L326.89 192.48L330.28 191.12L333.73 189.89L337.25 188.8L340.82 187.84L344.45 187.02L348.13 186.34L351.86 185.81L355.64 185.42L359.47 185.19L363.33 185.11L365.46 185.13L367.57 185.19ZM358.82 689.75L356.59 689.99L354.39 690.31L352.22 690.72L350.07 691.22L347.95 691.81L345.86 692.47L343.8 693.22L341.78 694.05L339.8 694.95L337.86 695.92L335.96 696.97L334.1 698.09L332.28 699.28L330.51 700.54L328.8 701.86L327.13 703.24L325.51 704.68L323.96 706.19L322.45 707.75L321.01 709.36L319.63 711.03L318.31 712.74L317.05 714.51L315.86 716.33L314.74 718.18L313.69 720.09L312.72 722.03L311.81 724.01L310.99 726.03L310.24 728.09L309.58 730.18L308.99 732.3L308.49 734.44L308.08 736.62L307.75 738.82L307.52 741.05L307.38 743.29L307.33 745.56L307.38 747.83L307.52 750.07L307.75 752.3L308.08 754.5L308.49 756.67L308.99 758.82L309.58 760.94L310.24 763.03L310.99 765.09L311.81 767.11L312.72 769.09L313.69 771.03L314.74 772.93L315.86 774.79L317.05 776.61L318.31 778.37L319.63 780.09L321.01 781.76L322.45 783.37L323.96 784.93L325.51 786.44L327.13 787.88L328.8 789.26L330.51 790.58L332.28 791.84L334.1 793.03L335.96 794.15L337.86 795.2L339.8 796.17L341.78 797.07L343.8 797.9L345.86 798.65L347.95 799.31L350.07 799.9L352.22 800.4L354.39 800.81L356.59 801.13L358.82 801.37L361.06 801.51L363.33 801.56L365.6 801.51L367.84 801.37L370.07 801.14L372.27 800.82L374.45 800.41L376.59 799.92L378.71 799.35L380.8 798.69L382.86 797.95L384.88 797.14L386.86 796.25L388.8 795.28L390.71 794.25L392.57 793.14L394.38 791.96L396.15 790.72L397.86 789.41L399.53 788.04L401.15 786.6L402.71 785.11L404.21 783.56L405.65 781.95L407.03 780.29L408.35 778.58L409.61 776.81L410.8 775L411.92 773.14L412.97 771.24L413.94 769.29L414.85 767.3L415.67 765.28L416.42 763.21L417.08 761.11L417.67 758.97L418.17 756.81L418.58 754.61L418.91 752.39L419.14 750.13L419.28 747.86L419.33 745.56L419.28 743.29L419.14 741.05L418.91 738.82L418.58 736.62L418.17 734.44L417.67 732.3L417.08 730.18L416.42 728.09L415.67 726.03L414.85 724.01L413.94 722.03L412.97 720.09L411.92 718.18L410.8 716.33L409.61 714.51L408.35 712.74L407.03 711.03L405.65 709.36L404.21 707.75L402.71 706.19L401.15 704.68L399.53 703.24L397.86 701.86L396.15 700.54L394.38 699.28L392.57 698.09L390.71 696.97L388.8 695.92L386.86 694.95L384.88 694.05L382.86 693.22L380.8 692.47L378.71 691.81L376.59 691.22L374.45 690.72L372.27 690.31L370.07 689.99L367.84 689.75L365.6 689.61L363.33 689.56L361.06 689.61L358.82 689.75ZM732.15 503.09L729.93 503.32L727.72 503.65L725.55 504.06L723.4 504.56L721.28 505.15L719.19 505.81L717.14 506.56L715.12 507.38L713.13 508.29L711.19 509.26L709.29 510.31L707.43 511.43L705.62 512.62L703.85 513.88L702.13 515.2L700.46 516.58L698.85 518.02L697.29 519.52L695.79 521.08L694.34 522.7L692.96 524.37L691.64 526.08L690.38 527.85L689.2 529.66L688.08 531.52L687.03 533.43L686.05 535.37L685.15 537.35L684.32 539.37L683.58 541.43L682.91 543.52L682.33 545.63L681.83 547.78L681.41 549.96L681.09 552.16L680.85 554.39L680.71 556.63L680.66 558.9L680.71 561.16L680.85 563.41L681.08 565.64L681.4 567.84L681.81 570.01L682.3 572.16L682.87 574.28L683.53 576.37L684.27 578.43L685.08 580.44L685.97 582.43L686.94 584.37L687.98 586.27L689.08 588.13L690.26 589.95L691.51 591.71L692.81 593.43L694.19 595.1L695.62 596.71L697.11 598.27L698.66 599.77L700.27 601.22L701.93 602.6L703.65 603.92L705.41 605.18L707.22 606.36L709.08 607.48L710.99 608.53L712.93 609.51L714.92 610.41L716.95 611.24L719.01 611.98L721.11 612.65L723.25 613.24L725.41 613.73L727.61 614.15L729.84 614.47L732.09 614.71L734.36 614.85L736.66 614.9L738.93 614.85L741.18 614.71L743.4 614.47L745.6 614.15L747.78 613.73L749.93 613.24L752.05 612.65L754.14 611.98L756.19 611.24L758.21 610.41L760.19 609.51L762.14 608.53L764.04 607.48L765.9 606.36L767.71 605.18L769.48 603.92L771.2 602.6L772.87 601.22L774.48 599.77L776.04 598.27L777.54 596.71L778.98 595.1L780.37 593.43L781.69 591.71L782.94 589.95L784.13 588.13L785.25 586.27L786.3 584.37L787.28 582.43L788.18 580.44L789 578.43L789.75 576.37L790.42 574.28L791 572.16L791.5 570.01L791.91 567.84L792.24 565.64L792.47 563.41L792.62 561.16L792.66 558.9L792.62 556.63L792.47 554.39L792.24 552.16L791.91 549.96L791.5 547.78L791 545.63L790.42 543.52L789.75 541.43L789 539.37L788.18 537.35L787.28 535.37L786.3 533.43L785.25 531.52L784.13 529.66L782.94 527.85L781.69 526.08L780.37 524.37L778.98 522.7L777.54 521.08L776.04 519.52L774.48 518.02L772.87 516.58L771.2 515.2L769.48 513.88L767.71 512.62L765.9 511.43L764.04 510.31L762.14 509.26L760.19 508.29L758.21 507.38L756.19 506.56L754.14 505.81L752.05 505.15L749.93 504.56L747.78 504.06L745.6 503.65L743.4 503.32L741.18 503.09L738.93 502.95L736.66 502.9L734.4 502.95L732.15 503.09ZM358.82 223.1L356.59 223.33L354.39 223.66L352.22 224.07L350.07 224.57L347.95 225.15L345.86 225.82L343.8 226.57L341.78 227.39L339.8 228.3L337.86 229.27L335.96 230.32L334.1 231.44L332.28 232.63L330.51 233.88L328.8 235.2L327.13 236.59L325.51 238.03L323.96 239.53L322.45 241.09L321.01 242.71L319.63 244.37L318.31 246.09L317.05 247.86L315.86 249.67L314.74 251.53L313.69 253.43L312.72 255.38L311.81 257.36L310.99 259.38L310.24 261.44L309.58 263.52L308.99 265.64L308.49 267.79L308.08 269.97L307.75 272.17L307.52 274.39L307.38 276.64L307.33 278.91L307.38 281.17L307.52 283.42L307.75 285.64L308.07 287.85L308.47 290.02L308.97 292.17L309.54 294.29L310.2 296.38L310.93 298.43L311.75 300.45L312.64 302.44L313.61 304.38L314.64 306.28L315.75 308.14L316.93 309.96L318.17 311.72L319.48 313.44L320.85 315.11L322.29 316.72L323.78 318.28L325.33 319.78L326.94 321.23L328.6 322.61L330.31 323.93L332.08 325.19L333.89 326.37L335.75 327.49L337.65 328.54L339.6 329.52L341.59 330.42L343.61 331.25L345.68 331.99L347.78 332.66L349.91 333.24L352.08 333.74L354.28 334.16L356.5 334.48L358.75 334.72L361.03 334.86L363.33 334.91L365.6 334.86L367.84 334.72L370.07 334.48L372.27 334.16L374.45 333.74L376.59 333.24L378.71 332.66L380.8 331.99L382.86 331.25L384.88 330.42L386.86 329.52L388.8 328.54L390.71 327.49L392.57 326.37L394.38 325.19L396.15 323.93L397.86 322.61L399.53 321.23L401.15 319.78L402.71 318.28L404.21 316.72L405.65 315.11L407.03 313.44L408.35 311.72L409.61 309.96L410.8 308.14L411.92 306.28L412.97 304.38L413.94 302.44L414.85 300.45L415.67 298.43L416.42 296.38L417.08 294.29L417.67 292.17L418.17 290.02L418.58 287.85L418.91 285.64L419.14 283.42L419.28 281.17L419.33 278.91L419.28 276.64L419.14 274.39L418.91 272.17L418.58 269.97L418.17 267.79L417.67 265.64L417.08 263.52L416.42 261.44L415.67 259.38L414.85 257.36L413.94 255.38L412.97 253.43L411.92 251.53L410.8 249.67L409.61 247.86L408.35 246.09L407.03 244.37L405.65 242.71L404.21 241.09L402.71 239.53L401.15 238.03L399.53 236.59L397.86 235.2L396.15 233.88L394.38 232.63L392.57 231.44L390.71 230.32L388.8 229.27L386.86 228.3L384.88 227.39L382.86 226.57L380.8 225.82L378.71 225.15L376.59 224.57L374.45 224.07L372.27 223.66L370.07 223.33L367.84 223.1L365.6 222.96L363.33 222.91L361.06 222.96L358.82 223.1Z" id="d2Bs60iTdY"></path>
  </defs>
  <g>
    <g>
      <g>
        <use xlink:href="#d2Bs60iTdY" opacity="1" fill="#000000" fill-opacity="1"></use>
        <g>
          <use xlink:href="#d2Bs60iTdY" opacity="1" fill-opacity="0" stroke="#000000" stroke-width="1" stroke-opacity="0"></use>
        </g>
      </g>
    </g>
  </g>
</svg>
