<?xml version="1.0" encoding="UTF-8" standalone="no"?>
<!DOCTYPE svg PUBLIC "-//W3C//DTD SVG 1.1//EN" "http://www.w3.org/Graphics/SVG/1.1/DTD/svg11.dtd">
<svg version="1.1" 
  xmlns="http://www.w3.org/2000/svg" 
  xmlns:xlink="http://www.w3.org/1999/xlink" preserveAspectRatio="xMidYMid meet" viewBox="0 0 1024 1024" width="1024" height="1024" style="stroke-width: 0px; background-color: #fff;">
  <defs>
    <path d="M331.51 138.5L333.92 138.64L336.33 138.82L338.72 139.06L341.11 139.35L343.47 139.7L345.84 140.09L348.18 140.55L350.51 141.05L352.83 141.6L355.14 142.2L357.43 142.87L359.7 143.56L361.95 144.33L364.18 145.13L366.4 145.99L368.58 146.89L370.76 147.85L372.91 148.84L375.04 149.9L377.14 150.99L379.22 152.14L381.27 153.32L383.3 154.56L385.3 155.84L387.27 157.16L389.21 158.54L391.13 159.95L393.01 161.42L394.87 162.91L396.68 164.46L398.48 166.06L400.24 167.68L401.95 169.36L403.64 171.07L405.29 172.83L406.9 174.63L408.48 176.47L410.02 178.35L412.68 181.83L415.19 185.38L417.52 189L419.69 192.68L421.7 196.43L423.55 200.24L425.23 204.08L426.75 207.98L428.11 211.92L429.32 215.88L430.36 219.88L431.24 223.92L431.96 227.96L432.52 232.03L432.93 236.11L433.19 240.19L433.28 244.28L433.21 248.36L432.99 252.43L432.61 256.5L432.08 260.55L431.39 264.57L430.56 268.57L429.56 272.54L428.42 276.46L427.13 280.34L425.68 284.19L424.09 287.98L422.34 291.71L420.43 295.38L418.39 298.99L416.19 302.54L413.85 306L411.36 309.38L408.72 312.68L405.93 315.88L402.99 319L399.92 322.02L396.69 324.94L393.32 327.74L394.92 331.07L396.59 334.46L398.33 337.86L400.12 341.3L401.99 344.77L403.92 348.26L405.91 351.77L407.96 355.3L410.07 358.85L412.23 362.4L414.44 365.95L416.72 369.52L419.04 373.09L421.4 376.65L423.81 380.21L426.27 383.76L428.77 387.29L431.32 390.82L433.91 394.32L436.52 397.81L439.19 401.26L441.87 404.69L444.6 408.09L447.36 411.45L450.13 414.78L452.95 418.06L455.79 421.29L458.65 424.48L461.53 427.62L464.43 430.71L467.35 433.74L470.28 436.71L473.23 439.61L476.19 442.45L479.16 445.21L482.15 447.91L485.14 450.51L488.13 453.05L491.13 455.51L494.12 457.86L497.6 460.48L501.15 463.02L504.76 465.5L508.43 467.92L512.17 470.26L515.96 472.56L519.81 474.78L523.72 476.94L527.68 479.04L531.69 481.06L535.73 483.04L539.83 484.94L543.96 486.78L548.13 488.56L552.34 490.26L556.57 491.92L560.84 493.5L565.14 495.02L569.45 496.48L573.79 497.86L578.16 499.2L582.52 500.46L586.92 501.66L591.32 502.8L595.72 503.86L600.15 504.88L604.56 505.82L608.98 506.7L613.39 507.52L617.8 508.26L622.2 508.96L626.6 509.58L630.98 510.14L635.35 510.64L639.69 511.06L644.02 511.44L648.32 511.74L652.59 511.98L656.84 512.16L661.06 512.26L661.06 513.34L662.49 510.91L663.97 508.54L665.53 506.19L667.13 503.91L668.79 501.66L670.5 499.45L672.27 497.29L674.09 495.19L675.95 493.12L677.88 491.11L679.85 489.14L681.86 487.23L683.93 485.38L686.04 483.58L688.19 481.83L690.39 480.13L692.63 478.49L694.91 476.91L697.23 475.39L699.6 473.93L702 472.54L704.43 471.2L706.9 469.92L709.4 468.71L711.95 467.57L714.52 466.49L717.12 465.47L719.76 464.54L722.42 463.67L725.11 462.86L727.83 462.13L730.57 461.47L733.35 460.88L736.13 460.38L738.95 459.94L741.79 459.58L744.65 459.3L747.52 459.1L750.42 458.97L753.32 458.94L757.75 459.03L762.11 459.29L766.43 459.73L770.69 460.32L774.91 461.09L779.06 462.02L783.14 463.11L787.15 464.34L791.09 465.74L794.97 467.28L798.76 468.96L802.48 470.79L806.1 472.75L809.64 474.85L813.09 477.07L816.44 479.43L819.71 481.91L822.87 484.51L825.92 487.23L828.87 490.07L831.7 493.02L834.41 496.07L837.01 499.22L839.49 502.48L841.85 505.84L844.08 509.28L846.18 512.82L848.15 516.46L849.96 520.16L851.65 523.95L853.2 527.83L854.58 531.77L855.83 535.79L856.91 539.87L857.84 544.02L858.6 548.23L859.21 552.49L859.64 556.81L859.91 561.18L860 565.6L859.91 570.01L859.64 574.39L859.21 578.71L858.6 582.97L857.84 587.18L856.91 591.33L855.83 595.41L854.58 599.43L853.2 603.37L851.65 607.23L849.96 611.03L848.15 614.74L846.18 618.38L844.08 621.91L841.85 625.36L839.49 628.72L837.01 631.98L834.41 635.13L831.7 638.18L828.87 641.13L825.92 643.97L822.87 646.69L819.71 649.28L816.44 651.76L813.09 654.13L809.64 656.35L806.1 658.45L802.48 660.41L798.76 662.24L794.97 663.92L791.09 665.46L787.15 666.86L783.14 668.09L779.06 669.18L774.91 670.1L770.69 670.87L766.43 671.47L762.11 671.91L757.75 672.17L753.32 672.26L750.42 672.22L747.53 672.1L744.65 671.9L741.8 671.61L738.97 671.26L736.17 670.82L733.38 670.31L730.63 669.73L727.89 669.06L725.19 668.33L722.51 667.53L719.86 666.66L717.23 665.71L714.65 664.71L712.09 663.62L709.56 662.48L707.07 661.27L704.6 660L702.18 658.66L699.79 657.26L697.44 655.81L695.13 654.29L692.85 652.7L690.63 651.06L688.43 649.37L686.27 647.62L684.17 645.82L682.1 643.97L680.08 642.05L678.1 640.09L676.17 638.08L674.29 636.01L672.45 633.91L670.67 631.75L668.95 629.54L667.25 627.29L665.63 624.99L664.05 622.66L662.52 620.29L661.06 617.86L661.06 618.93L657.28 618.87L653.45 618.77L649.59 618.63L645.68 618.45L641.75 618.23L637.77 617.97L633.77 617.67L629.73 617.33L625.69 616.95L621.61 616.53L617.52 616.06L613.4 615.55L609.28 615.02L605.15 614.42L601 613.81L596.85 613.13L592.71 612.43L588.56 611.68L584.41 610.89L580.26 610.07L576.12 609.19L572 608.29L567.89 607.33L563.79 606.33L559.71 605.3L555.67 604.23L551.63 603.11L547.63 601.94L543.65 600.74L539.71 599.51L535.8 598.22L531.93 596.9L528.1 595.53L524.32 594.13L520.58 592.67L516.89 591.18L513.24 589.65L509.67 588.07L506.13 586.46L502.66 584.8L499.23 583.1L495.81 581.38L492.42 579.62L489.05 577.84L485.69 576.02L482.35 574.18L479.03 572.31L475.72 570.41L472.43 568.48L469.17 566.51L465.92 564.53L462.69 562.5L459.48 560.46L456.28 558.39L453.12 556.27L449.96 554.15L446.82 551.99L443.7 549.79L440.6 547.58L437.53 545.34L434.47 543.06L431.43 540.75L428.41 538.42L425.4 536.07L422.42 533.68L419.45 531.27L416.5 528.83L413.57 526.37L410.67 523.87L407.78 521.35L404.92 518.8L402.07 516.23L399.24 513.62L396.43 510.99L393.64 508.34L390.88 505.66L388.12 502.95L385.39 500.22L382.68 497.45L380 494.66L380 687.2L382.44 688.65L384.85 690.17L387.21 691.75L389.52 693.37L391.77 695.06L393.97 696.8L396.12 698.61L398.23 700.45L400.27 702.34L402.26 704.3L404.19 706.3L406.08 708.33L407.91 710.42L409.67 712.56L411.38 714.73L413.03 716.96L414.63 719.21L416.16 721.52L417.63 723.85L419.04 726.23L420.39 728.64L421.67 731.09L422.89 733.57L424.05 736.07L425.14 738.62L426.17 741.19L427.13 743.78L428.02 746.41L428.84 749.06L429.6 751.74L430.29 754.45L430.91 757.17L431.45 759.91L431.93 762.66L432.33 765.45L432.66 768.24L432.91 771.06L433.09 773.89L433.21 776.73L433.23 779.58L433.13 783.97L432.85 788.3L432.41 792.58L431.8 796.81L431.01 801L430.08 805.11L428.98 809.17L427.72 813.17L426.33 817.09L424.77 820.93L423.07 824.7L421.24 828.4L419.27 832L417.16 835.53L414.92 838.96L412.56 842.3L410.08 845.54L407.46 848.69L404.74 851.73L401.91 854.65L398.96 857.48L395.91 860.18L392.75 862.78L389.49 865.25L386.13 867.59L382.69 869.82L379.16 871.9L375.54 873.85L371.84 875.67L368.05 877.35L364.2 878.88L360.27 880.26L356.27 881.49L352.21 882.57L348.09 883.49L343.91 884.24L339.67 884.84L335.38 885.26L331.04 885.51L326.66 885.59L322.25 885.5L317.87 885.24L313.55 884.8L309.29 884.21L305.08 883.43L300.93 882.5L296.85 881.42L292.83 880.18L288.89 878.79L285.01 877.25L281.22 875.57L277.52 873.74L273.88 871.77L270.34 869.68L266.9 867.45L263.54 865.1L260.28 862.61L257.13 860.01L254.08 857.29L251.13 854.46L248.29 851.51L245.57 848.46L242.97 845.3L240.49 842.05L238.13 838.69L235.91 835.24L233.8 831.7L231.85 828.07L230.02 824.36L228.34 820.56L226.8 816.7L225.4 812.76L224.17 808.73L223.08 804.65L222.15 800.5L221.38 796.3L220.77 792.04L220.34 787.72L220.08 783.34L220 778.93L220.03 776.01L220.16 773.12L220.36 770.25L220.64 767.41L220.99 764.57L221.43 761.76L221.94 758.98L222.52 756.23L223.17 753.5L223.91 750.79L224.69 748.12L225.56 745.48L226.5 742.86L227.51 740.26L228.57 737.72L229.7 735.19L230.9 732.71L232.16 730.25L233.48 727.84L234.87 725.46L236.29 723.12L237.79 720.82L239.35 718.56L240.96 716.33L242.63 714.16L244.34 712.02L246.11 709.93L247.93 707.89L249.8 705.89L251.72 703.93L253.69 702.02L255.7 700.16L257.76 698.35L259.86 696.61L262 694.9L264.19 693.25L266.42 691.65L268.68 690.11L270.98 688.63L273.32 687.2L273.32 337.34L270.89 335.89L268.5 334.38L266.16 332.81L263.87 331.19L261.63 329.51L259.44 327.78L257.29 326L255.21 324.16L253.17 322.27L251.19 320.34L249.25 318.36L247.38 316.33L245.56 314.26L243.8 312.14L242.1 309.98L240.44 307.77L238.85 305.53L237.32 303.26L235.86 300.94L234.44 298.57L233.09 296.18L231.8 293.76L230.58 291.3L229.41 288.81L228.32 286.28L227.29 283.74L226.32 281.15L225.41 278.55L224.58 275.91L223.81 273.26L223.11 270.58L222.48 267.87L221.92 265.15L221.43 262.41L221 259.64L220.66 256.87L220.39 254.08L220.18 251.27L220.04 248.44L220 245.61L220.08 241.19L220.34 236.81L220.77 232.49L221.38 228.22L222.15 224L223.08 219.85L224.17 215.76L225.4 211.72L226.8 207.77L228.34 203.88L230.02 200.08L231.85 196.34L233.8 192.7L235.91 189.14L238.13 185.68L240.49 182.3L242.97 179.03L245.57 175.85L248.29 172.78L251.13 169.8L254.08 166.96L257.13 164.22L260.28 161.6L263.54 159.1L266.9 156.72L270.34 154.47L273.88 152.35L277.52 150.38L281.22 148.54L285.01 146.83L288.89 145.28L292.83 143.87L296.85 142.63L300.93 141.53L305.08 140.59L309.29 139.82L313.55 139.21L317.87 138.76L322.25 138.5L326.66 138.41L329.09 138.43L331.51 138.5ZM321.51 715.14L318.96 715.42L316.44 715.78L313.96 716.25L311.51 716.82L309.08 717.5L306.69 718.25L304.34 719.11L302.03 720.06L299.77 721.09L297.55 722.2L295.38 723.4L293.25 724.68L291.17 726.04L289.15 727.48L287.2 728.98L285.29 730.56L283.44 732.21L281.67 733.93L279.94 735.72L278.29 737.56L276.72 739.46L275.21 741.42L273.77 743.44L272.41 745.52L271.13 747.64L269.93 749.82L268.82 752.04L267.78 754.3L266.84 756.61L265.99 758.96L265.23 761.35L264.56 763.77L263.99 766.22L263.52 768.71L263.14 771.22L262.88 773.77L262.72 776.33L262.66 778.93L262.72 781.52L262.88 784.08L263.14 786.63L263.52 789.14L263.99 791.62L264.56 794.08L265.23 796.5L265.99 798.89L266.84 801.25L267.78 803.56L268.82 805.82L269.93 808.04L271.13 810.21L272.41 812.33L273.77 814.41L275.21 816.42L276.72 818.39L278.29 820.3L279.94 822.14L281.67 823.92L283.44 825.65L285.29 827.29L287.2 828.87L289.15 830.38L291.17 831.82L293.25 833.18L295.38 834.46L297.55 835.66L299.77 836.77L302.03 837.8L304.34 838.74L306.69 839.6L309.08 840.36L311.51 841.03L313.96 841.6L316.44 842.07L318.96 842.44L321.51 842.71L324.07 842.87L326.66 842.93L329.25 842.87L331.81 842.71L334.36 842.45L336.88 842.08L339.37 841.61L341.81 841.05L344.24 840.4L346.63 839.65L348.98 838.8L351.29 837.88L353.55 836.86L355.77 835.75L357.95 834.57L360.08 833.3L362.15 831.96L364.17 830.54L366.12 829.04L368.03 827.48L369.88 825.83L371.67 824.13L373.38 822.36L375.03 820.52L376.6 818.62L378.11 816.66L379.55 814.64L380.91 812.57L382.19 810.45L383.39 808.28L384.5 806.05L385.54 803.77L386.48 801.46L387.33 799.1L388.09 796.7L388.76 794.25L389.33 791.78L389.8 789.27L390.18 786.73L390.44 784.15L390.6 781.56L390.66 778.93L390.6 776.33L390.44 773.77L390.18 771.22L389.8 768.71L389.33 766.22L388.76 763.77L388.09 761.35L387.33 758.96L386.48 756.61L385.54 754.3L384.5 752.04L383.39 749.82L382.19 747.64L380.91 745.52L379.55 743.44L378.11 741.42L376.6 739.46L375.03 737.56L373.38 735.72L371.67 733.93L369.88 732.21L368.03 730.56L366.12 728.98L364.17 727.48L362.15 726.04L360.08 724.68L357.95 723.4L355.77 722.2L353.55 721.09L351.29 720.06L348.98 719.11L346.63 718.25L344.24 717.5L341.81 716.82L339.37 716.25L336.88 715.78L334.36 715.42L331.81 715.14L329.25 714.98L326.66 714.93L324.07 714.98L321.51 715.14ZM748.17 501.82L745.63 502.08L743.11 502.46L740.63 502.93L738.17 503.5L735.75 504.17L733.36 504.93L731.01 505.78L728.71 506.72L726.43 507.76L724.21 508.87L722.04 510.07L719.92 511.35L717.85 512.71L715.83 514.15L713.86 515.66L711.95 517.23L710.11 518.88L708.33 520.59L706.61 522.38L704.96 524.23L703.38 526.14L701.87 528.09L700.43 530.11L699.08 532.18L697.8 534.31L696.6 536.49L695.48 538.71L694.45 540.97L693.51 543.28L692.66 545.63L691.89 548.02L691.23 550.43L690.66 552.89L690.18 555.38L689.81 557.9L689.54 560.45L689.38 563.01L689.32 565.6L689.38 568.18L689.54 570.75L689.8 573.3L690.17 575.82L690.64 578.3L691.2 580.75L691.85 583.18L692.6 585.57L693.45 587.92L694.37 590.22L695.39 592.49L696.5 594.71L697.69 596.88L698.95 599.01L700.29 601.09L701.72 603.1L703.21 605.06L704.79 606.97L706.42 608.81L708.12 610.59L709.89 612.31L711.73 613.97L713.63 615.54L715.6 617.05L717.61 618.49L719.68 619.84L721.8 621.12L723.99 622.32L726.2 623.44L728.48 624.47L730.8 625.42L733.15 626.26L735.55 627.03L738 627.7L740.47 628.26L742.98 628.74L745.53 629.11L748.1 629.38L750.69 629.54L753.32 629.6L755.92 629.54L758.49 629.38L761.03 629.11L763.54 628.74L766.03 628.26L768.49 627.7L770.91 627.03L773.3 626.26L775.64 625.42L777.95 624.47L780.21 623.44L782.44 622.32L784.61 621.12L786.74 619.84L788.81 618.49L790.83 617.05L792.8 615.54L794.71 613.97L796.55 612.31L798.33 610.59L800.04 608.81L801.69 606.97L803.28 605.06L804.79 603.1L806.21 601.09L807.57 599.01L808.85 596.88L810.05 594.71L811.17 592.49L812.2 590.22L813.14 587.92L814 585.57L814.76 583.18L815.43 580.75L816 578.3L816.47 575.82L816.84 573.3L817.11 570.75L817.28 568.18L817.32 565.6L817.28 563.01L817.11 560.45L816.84 557.9L816.47 555.38L816 552.89L815.43 550.43L814.76 548.02L814 545.63L813.14 543.28L812.2 540.97L811.17 538.71L810.05 536.49L808.85 534.31L807.57 532.18L806.21 530.11L804.79 528.09L803.28 526.14L801.69 524.23L800.04 522.38L798.33 520.59L796.55 518.88L794.71 517.23L792.8 515.66L790.83 514.15L788.81 512.71L786.74 511.35L784.61 510.07L782.44 508.87L780.21 507.76L777.95 506.72L775.64 505.78L773.3 504.93L770.91 504.17L768.49 503.5L766.03 502.93L763.54 502.46L761.03 502.08L758.49 501.82L755.92 501.66L753.32 501.6L750.74 501.66L748.17 501.82ZM321.51 181.83L318.96 182.09L316.44 182.47L313.96 182.94L311.51 183.51L309.08 184.17L306.69 184.94L304.34 185.79L302.03 186.73L299.77 187.77L297.55 188.88L295.38 190.08L293.25 191.36L291.17 192.72L289.15 194.15L287.2 195.66L285.29 197.24L283.44 198.89L281.67 200.6L279.94 202.39L278.29 204.24L276.72 206.14L275.21 208.1L273.77 210.12L272.41 212.19L271.13 214.32L269.93 216.49L268.82 218.72L267.78 220.98L266.84 223.29L265.99 225.64L265.23 228.02L264.56 230.44L263.99 232.9L263.52 235.39L263.14 237.91L262.88 240.44L262.72 243.02L262.66 245.61L262.72 248.19L262.88 250.76L263.14 253.3L263.51 255.83L263.96 258.31L264.53 260.76L265.19 263.19L265.94 265.58L266.77 267.92L267.71 270.23L268.73 272.5L269.84 274.72L271.01 276.89L272.28 279.02L273.63 281.1L275.05 283.11L276.55 285.07L278.11 286.98L279.76 288.82L281.46 290.6L283.23 292.32L285.07 293.98L286.97 295.55L288.92 297.06L290.95 298.5L293.01 299.85L295.14 301.13L297.31 302.33L299.54 303.45L301.81 304.48L304.12 305.43L306.49 306.27L308.89 307.04L311.32 307.7L313.8 308.27L316.32 308.75L318.85 309.12L321.43 309.39L324.03 309.55L326.66 309.61L329.25 309.55L331.81 309.39L334.36 309.12L336.88 308.75L339.37 308.27L341.81 307.7L344.24 307.04L346.63 306.27L348.98 305.43L351.29 304.48L353.55 303.45L355.77 302.33L357.95 301.13L360.08 299.85L362.15 298.5L364.17 297.06L366.12 295.55L368.03 293.98L369.88 292.32L371.67 290.6L373.38 288.82L375.03 286.98L376.6 285.07L378.11 283.11L379.55 281.1L380.91 279.02L382.19 276.89L383.39 274.72L384.5 272.5L385.54 270.23L386.48 267.92L387.33 265.58L388.09 263.19L388.76 260.76L389.33 258.31L389.8 255.83L390.18 253.3L390.44 250.76L390.6 248.19L390.66 245.61L390.6 243.02L390.44 240.44L390.18 237.91L389.8 235.39L389.33 232.9L388.76 230.44L388.09 228.02L387.33 225.64L386.48 223.29L385.54 220.98L384.5 218.72L383.39 216.49L382.19 214.32L380.91 212.19L379.55 210.12L378.11 208.1L376.6 206.14L375.03 204.24L373.38 202.39L371.67 200.6L369.88 198.89L368.03 197.24L366.12 195.66L364.17 194.15L362.15 192.72L360.08 191.36L357.95 190.08L355.77 188.88L353.55 187.77L351.29 186.73L348.98 185.79L346.63 184.94L344.24 184.17L341.81 183.51L339.37 182.94L336.88 182.47L334.36 182.09L331.81 181.83L329.25 181.67L326.66 181.61L324.07 181.67L321.51 181.83Z" id="m1VKLL269o"></path>
    <path d="M331.51 138.5L333.92 138.64L336.33 138.82L338.72 139.06L341.11 139.35L343.47 139.7L345.84 140.09L348.18 140.55L350.51 141.05L352.83 141.6L355.14 142.2L357.43 142.87L359.7 143.56L361.95 144.33L364.18 145.13L366.4 145.99L368.58 146.89L370.76 147.85L372.91 148.84L375.04 149.9L377.14 150.99L379.22 152.14L381.27 153.32L383.3 154.56L385.3 155.84L387.27 157.16L389.21 158.54L391.13 159.95L393.01 161.42L394.87 162.91L396.68 164.46L398.48 166.06L400.24 167.68L401.95 169.36L403.64 171.07L405.29 172.83L406.9 174.63L408.48 176.47L410.02 178.35L412.68 181.83L415.19 185.38L417.52 189L419.69 192.68L421.7 196.43L423.55 200.24L425.23 204.08L426.75 207.98L428.11 211.92L429.32 215.88L430.36 219.88L431.24 223.92L431.96 227.96L432.52 232.03L432.93 236.11L433.19 240.19L433.28 244.28L433.21 248.36L432.99 252.43L432.61 256.5L432.08 260.55L431.39 264.57L430.56 268.57L429.56 272.54L428.42 276.46L427.13 280.34L425.68 284.19L424.09 287.98L422.34 291.71L420.43 295.38L418.39 298.99L416.19 302.54L413.85 306L411.36 309.38L408.72 312.68L405.93 315.88L402.99 319L399.92 322.02L396.69 324.94L393.32 327.74L394.92 331.07L396.59 334.46L398.33 337.86L400.12 341.3L401.99 344.77L403.92 348.26L405.91 351.77L407.96 355.3L410.07 358.85L412.23 362.4L414.44 365.95L416.72 369.52L419.04 373.09L421.4 376.65L423.81 380.21L426.27 383.76L428.77 387.29L431.32 390.82L433.91 394.32L436.52 397.81L439.19 401.26L441.87 404.69L444.6 408.09L447.36 411.45L450.13 414.78L452.95 418.06L455.79 421.29L458.65 424.48L461.53 427.62L464.43 430.71L467.35 433.74L470.28 436.71L473.23 439.61L476.19 442.45L479.16 445.21L482.15 447.91L485.14 450.51L488.13 453.05L491.13 455.51L494.12 457.86L497.6 460.48L501.15 463.02L504.76 465.5L508.43 467.92L512.17 470.26L515.96 472.56L519.81 474.78L523.72 476.94L527.68 479.04L531.69 481.06L535.73 483.04L539.83 484.94L543.96 486.78L548.13 488.56L552.34 490.26L556.57 491.92L560.84 493.5L565.14 495.02L569.45 496.48L573.79 497.86L578.16 499.2L582.52 500.46L586.92 501.66L591.32 502.8L595.72 503.86L600.15 504.88L604.56 505.82L608.98 506.7L613.39 507.52L617.8 508.26L622.2 508.96L626.6 509.58L630.98 510.14L635.35 510.64L639.69 511.06L644.02 511.44L648.32 511.74L652.59 511.98L656.84 512.16L661.06 512.26L661.06 513.34L662.49 510.91L663.97 508.54L665.53 506.19L667.13 503.91L668.79 501.66L670.5 499.45L672.27 497.29L674.09 495.19L675.95 493.12L677.88 491.11L679.85 489.14L681.86 487.23L683.93 485.38L686.04 483.58L688.19 481.83L690.39 480.13L692.63 478.49L694.91 476.91L697.23 475.39L699.6 473.93L702 472.54L704.43 471.2L706.9 469.92L709.4 468.71L711.95 467.57L714.52 466.49L717.12 465.47L719.76 464.54L722.42 463.67L725.11 462.86L727.83 462.13L730.57 461.47L733.35 460.88L736.13 460.38L738.95 459.94L741.79 459.58L744.65 459.3L747.52 459.1L750.42 458.97L753.32 458.94L757.75 459.03L762.11 459.29L766.43 459.73L770.69 460.32L774.91 461.09L779.06 462.02L783.14 463.11L787.15 464.34L791.09 465.74L794.97 467.28L798.76 468.96L802.48 470.79L806.1 472.75L809.64 474.85L813.09 477.07L816.44 479.43L819.71 481.91L822.87 484.51L825.92 487.23L828.87 490.07L831.7 493.02L834.41 496.07L837.01 499.22L839.49 502.48L841.85 505.84L844.08 509.28L846.18 512.82L848.15 516.46L849.96 520.16L851.65 523.95L853.2 527.83L854.58 531.77L855.83 535.79L856.91 539.87L857.84 544.02L858.6 548.23L859.21 552.49L859.64 556.81L859.91 561.18L860 565.6L859.91 570.01L859.64 574.39L859.21 578.71L858.6 582.97L857.84 587.18L856.91 591.33L855.83 595.41L854.58 599.43L853.2 603.37L851.65 607.23L849.96 611.03L848.15 614.74L846.18 618.38L844.08 621.91L841.85 625.36L839.49 628.72L837.01 631.98L834.41 635.13L831.7 638.18L828.87 641.13L825.92 643.97L822.87 646.69L819.71 649.28L816.44 651.76L813.09 654.13L809.64 656.35L806.1 658.45L802.48 660.41L798.76 662.24L794.97 663.92L791.09 665.46L787.15 666.86L783.14 668.09L779.06 669.18L774.91 670.1L770.69 670.87L766.43 671.47L762.11 671.91L757.75 672.17L753.32 672.26L750.42 672.22L747.53 672.1L744.65 671.9L741.8 671.61L738.97 671.26L736.17 670.82L733.38 670.31L730.63 669.73L727.89 669.06L725.19 668.33L722.51 667.53L719.86 666.66L717.23 665.71L714.65 664.71L712.09 663.62L709.56 662.48L707.07 661.27L704.6 660L702.18 658.66L699.79 657.26L697.44 655.81L695.13 654.29L692.85 652.7L690.63 651.06L688.43 649.37L686.27 647.62L684.17 645.82L682.1 643.97L680.08 642.05L678.1 640.09L676.17 638.08L674.29 636.01L672.45 633.91L670.67 631.75L668.95 629.54L667.25 627.29L665.63 624.99L664.05 622.66L662.52 620.29L661.06 617.86L661.06 618.93L657.28 618.87L653.45 618.77L649.59 618.63L645.68 618.45L641.75 618.23L637.77 617.97L633.77 617.67L629.73 617.33L625.69 616.95L621.61 616.53L617.52 616.06L613.4 615.55L609.28 615.02L605.15 614.42L601 613.81L596.85 613.13L592.71 612.43L588.56 611.68L584.41 610.89L580.26 610.07L576.12 609.19L572 608.29L567.89 607.33L563.79 606.33L559.71 605.3L555.67 604.23L551.63 603.11L547.63 601.94L543.65 600.74L539.71 599.51L535.8 598.22L531.93 596.9L528.1 595.53L524.32 594.13L520.58 592.67L516.89 591.18L513.24 589.65L509.67 588.07L506.13 586.46L502.66 584.8L499.23 583.1L495.81 581.38L492.42 579.62L489.05 577.84L485.69 576.02L482.35 574.18L479.03 572.31L475.72 570.41L472.43 568.48L469.17 566.51L465.92 564.53L462.69 562.5L459.48 560.46L456.28 558.39L453.12 556.27L449.96 554.15L446.82 551.99L443.7 549.79L440.6 547.58L437.53 545.34L434.47 543.06L431.43 540.75L428.41 538.42L425.4 536.07L422.42 533.68L419.45 531.27L416.5 528.83L413.57 526.37L410.67 523.87L407.78 521.35L404.92 518.8L402.07 516.23L399.24 513.62L396.43 510.99L393.64 508.34L390.88 505.66L388.12 502.95L385.39 500.22L382.68 497.45L380 494.66L380 687.2L382.44 688.65L384.85 690.17L387.21 691.75L389.52 693.37L391.77 695.06L393.97 696.8L396.12 698.61L398.23 700.45L400.27 702.34L402.26 704.3L404.19 706.3L406.08 708.33L407.91 710.42L409.67 712.56L411.38 714.73L413.03 716.96L414.63 719.21L416.16 721.52L417.63 723.85L419.04 726.23L420.39 728.64L421.67 731.09L422.89 733.57L424.05 736.07L425.14 738.62L426.17 741.19L427.13 743.78L428.02 746.41L428.84 749.06L429.6 751.74L430.29 754.45L430.91 757.17L431.45 759.91L431.93 762.66L432.33 765.45L432.66 768.24L432.91 771.06L433.09 773.89L433.21 776.73L433.23 779.58L433.13 783.97L432.85 788.3L432.41 792.58L431.8 796.81L431.01 801L430.08 805.11L428.98 809.17L427.72 813.17L426.33 817.09L424.77 820.93L423.07 824.7L421.24 828.4L419.27 832L417.16 835.53L414.92 838.96L412.56 842.3L410.08 845.54L407.46 848.69L404.74 851.73L401.91 854.65L398.96 857.48L395.91 860.18L392.75 862.78L389.49 865.25L386.13 867.59L382.69 869.82L379.16 871.9L375.54 873.85L371.84 875.67L368.05 877.35L364.2 878.88L360.27 880.26L356.27 881.49L352.21 882.57L348.09 883.49L343.91 884.24L339.67 884.84L335.38 885.26L331.04 885.51L326.66 885.59L322.25 885.5L317.87 885.24L313.55 884.8L309.29 884.21L305.08 883.43L300.93 882.5L296.85 881.42L292.83 880.18L288.89 878.79L285.01 877.25L281.22 875.57L277.52 873.74L273.88 871.77L270.34 869.68L266.9 867.45L263.54 865.1L260.28 862.61L257.13 860.01L254.08 857.29L251.13 854.46L248.29 851.51L245.57 848.46L242.97 845.3L240.49 842.05L238.13 838.69L235.91 835.24L233.8 831.7L231.85 828.07L230.02 824.36L228.34 820.56L226.8 816.7L225.4 812.76L224.17 808.73L223.08 804.65L222.15 800.5L221.38 796.3L220.77 792.04L220.34 787.72L220.08 783.34L220 778.93L220.03 776.01L220.16 773.12L220.36 770.25L220.64 767.41L220.99 764.57L221.43 761.76L221.94 758.98L222.52 756.23L223.17 753.5L223.91 750.79L224.69 748.12L225.56 745.48L226.5 742.86L227.51 740.26L228.57 737.72L229.7 735.19L230.9 732.71L232.16 730.25L233.48 727.84L234.87 725.46L236.29 723.12L237.79 720.82L239.35 718.56L240.96 716.33L242.63 714.16L244.34 712.02L246.11 709.93L247.93 707.89L249.8 705.89L251.72 703.93L253.69 702.02L255.7 700.16L257.76 698.35L259.86 696.61L262 694.9L264.19 693.25L266.42 691.65L268.68 690.11L270.98 688.63L273.32 687.2L273.32 337.34L270.89 335.89L268.5 334.38L266.16 332.81L263.87 331.19L261.63 329.51L259.44 327.78L257.29 326L255.21 324.16L253.17 322.27L251.19 320.34L249.25 318.36L247.38 316.33L245.56 314.26L243.8 312.14L242.1 309.98L240.44 307.77L238.85 305.53L237.32 303.26L235.86 300.94L234.44 298.57L233.09 296.18L231.8 293.76L230.58 291.3L229.41 288.81L228.32 286.28L227.29 283.74L226.32 281.15L225.41 278.55L224.58 275.91L223.81 273.26L223.11 270.58L222.48 267.87L221.92 265.15L221.43 262.41L221 259.64L220.66 256.87L220.39 254.08L220.18 251.27L220.04 248.44L220 245.61L220.08 241.19L220.34 236.81L220.77 232.49L221.38 228.22L222.15 224L223.08 219.85L224.17 215.76L225.4 211.72L226.8 207.77L228.34 203.88L230.02 200.08L231.85 196.34L233.8 192.7L235.91 189.14L238.13 185.68L240.49 182.3L242.97 179.03L245.57 175.85L248.29 172.78L251.13 169.8L254.08 166.96L257.13 164.22L260.28 161.6L263.54 159.1L266.9 156.72L270.34 154.47L273.88 152.35L277.52 150.38L281.22 148.54L285.01 146.83L288.89 145.28L292.83 143.87L296.85 142.63L300.93 141.53L305.08 140.59L309.29 139.82L313.55 139.21L317.87 138.76L322.25 138.5L326.66 138.41L329.09 138.43L331.51 138.5ZM321.51 715.14L318.96 715.42L316.44 715.78L313.96 716.25L311.51 716.82L309.08 717.5L306.69 718.25L304.34 719.11L302.03 720.06L299.77 721.09L297.55 722.2L295.38 723.4L293.25 724.68L291.17 726.04L289.15 727.48L287.2 728.98L285.29 730.56L283.44 732.21L281.67 733.93L279.94 735.72L278.29 737.56L276.72 739.46L275.21 741.42L273.77 743.44L272.41 745.52L271.13 747.64L269.93 749.82L268.82 752.04L267.78 754.3L266.84 756.61L265.99 758.96L265.23 761.35L264.56 763.77L263.99 766.22L263.52 768.71L263.14 771.22L262.88 773.77L262.72 776.33L262.66 778.93L262.72 781.52L262.88 784.08L263.14 786.63L263.52 789.14L263.99 791.62L264.56 794.08L265.23 796.5L265.99 798.89L266.84 801.25L267.78 803.56L268.82 805.82L269.93 808.04L271.13 810.21L272.41 812.33L273.77 814.41L275.21 816.42L276.72 818.39L278.29 820.3L279.94 822.14L281.67 823.92L283.44 825.65L285.29 827.29L287.2 828.87L289.15 830.38L291.17 831.82L293.25 833.18L295.38 834.46L297.55 835.66L299.77 836.77L302.03 837.8L304.34 838.74L306.69 839.6L309.08 840.36L311.51 841.03L313.96 841.6L316.44 842.07L318.96 842.44L321.51 842.71L324.07 842.87L326.66 842.93L329.25 842.87L331.81 842.71L334.36 842.45L336.88 842.08L339.37 841.61L341.81 841.05L344.24 840.4L346.63 839.65L348.98 838.8L351.29 837.88L353.55 836.86L355.77 835.75L357.95 834.57L360.08 833.3L362.15 831.96L364.17 830.54L366.12 829.04L368.03 827.48L369.88 825.83L371.67 824.13L373.38 822.36L375.03 820.52L376.6 818.62L378.11 816.66L379.55 814.64L380.91 812.57L382.19 810.45L383.39 808.28L384.5 806.05L385.54 803.77L386.48 801.46L387.33 799.1L388.09 796.7L388.76 794.25L389.33 791.78L389.8 789.27L390.18 786.73L390.44 784.15L390.6 781.56L390.66 778.93L390.6 776.33L390.44 773.77L390.18 771.22L389.8 768.71L389.33 766.22L388.76 763.77L388.09 761.35L387.33 758.96L386.48 756.61L385.54 754.3L384.5 752.04L383.39 749.82L382.19 747.64L380.91 745.52L379.55 743.44L378.11 741.42L376.6 739.46L375.03 737.56L373.38 735.72L371.67 733.93L369.88 732.21L368.03 730.56L366.12 728.98L364.17 727.48L362.15 726.04L360.08 724.68L357.95 723.4L355.77 722.2L353.55 721.09L351.29 720.06L348.98 719.11L346.63 718.25L344.24 717.5L341.81 716.82L339.37 716.25L336.88 715.78L334.36 715.42L331.81 715.14L329.25 714.98L326.66 714.93L324.07 714.98L321.51 715.14ZM748.17 501.82L745.63 502.08L743.11 502.46L740.63 502.93L738.17 503.5L735.75 504.17L733.36 504.93L731.01 505.78L728.71 506.72L726.43 507.76L724.21 508.87L722.04 510.07L719.92 511.35L717.85 512.71L715.83 514.15L713.86 515.66L711.95 517.23L710.11 518.88L708.33 520.59L706.61 522.38L704.96 524.23L703.38 526.14L701.87 528.09L700.43 530.11L699.08 532.18L697.8 534.31L696.6 536.49L695.48 538.71L694.45 540.97L693.51 543.28L692.66 545.63L691.89 548.02L691.23 550.43L690.66 552.89L690.18 555.38L689.81 557.9L689.54 560.45L689.38 563.01L689.32 565.6L689.38 568.18L689.54 570.75L689.8 573.3L690.17 575.82L690.64 578.3L691.2 580.75L691.85 583.18L692.6 585.57L693.45 587.92L694.37 590.22L695.39 592.49L696.5 594.71L697.69 596.88L698.95 599.01L700.29 601.09L701.72 603.1L703.21 605.06L704.79 606.97L706.42 608.81L708.12 610.59L709.89 612.31L711.73 613.97L713.63 615.54L715.6 617.05L717.61 618.49L719.68 619.84L721.8 621.12L723.99 622.32L726.2 623.44L728.48 624.47L730.8 625.42L733.15 626.26L735.55 627.03L738 627.7L740.47 628.26L742.98 628.74L745.53 629.11L748.1 629.38L750.69 629.54L753.32 629.6L755.92 629.54L758.49 629.38L761.03 629.11L763.54 628.74L766.03 628.26L768.49 627.7L770.91 627.03L773.3 626.26L775.64 625.42L777.95 624.47L780.21 623.44L782.44 622.32L784.61 621.12L786.74 619.84L788.81 618.49L790.83 617.05L792.8 615.54L794.71 613.97L796.55 612.31L798.33 610.59L800.04 608.81L801.69 606.97L803.28 605.06L804.79 603.1L806.21 601.09L807.57 599.01L808.85 596.88L810.05 594.71L811.17 592.49L812.2 590.22L813.14 587.92L814 585.57L814.76 583.18L815.43 580.75L816 578.3L816.47 575.82L816.84 573.3L817.11 570.75L817.28 568.18L817.32 565.6L817.28 563.01L817.11 560.45L816.84 557.9L816.47 555.38L816 552.89L815.43 550.43L814.76 548.02L814 545.63L813.14 543.28L812.2 540.97L811.17 538.71L810.05 536.49L808.85 534.31L807.57 532.18L806.21 530.11L804.79 528.09L803.28 526.14L801.69 524.23L800.04 522.38L798.33 520.59L796.55 518.88L794.71 517.23L792.8 515.66L790.83 514.15L788.81 512.71L786.74 511.35L784.61 510.07L782.44 508.87L780.21 507.76L777.95 506.72L775.64 505.78L773.3 504.93L770.91 504.17L768.49 503.5L766.03 502.93L763.54 502.46L761.03 502.08L758.49 501.82L755.92 501.66L753.32 501.6L750.74 501.66L748.17 501.82ZM321.51 181.83L318.96 182.09L316.44 182.47L313.96 182.94L311.51 183.51L309.08 184.17L306.69 184.94L304.34 185.79L302.03 186.73L299.77 187.77L297.55 188.88L295.38 190.08L293.25 191.36L291.17 192.72L289.15 194.15L287.2 195.66L285.29 197.24L283.44 198.89L281.67 200.6L279.94 202.39L278.29 204.24L276.72 206.14L275.21 208.1L273.77 210.12L272.41 212.19L271.13 214.32L269.93 216.49L268.82 218.72L267.78 220.98L266.84 223.29L265.99 225.64L265.23 228.02L264.56 230.44L263.99 232.9L263.52 235.39L263.14 237.91L262.88 240.44L262.72 243.02L262.66 245.61L262.72 248.19L262.88 250.76L263.14 253.3L263.51 255.83L263.96 258.31L264.53 260.76L265.19 263.19L265.94 265.58L266.77 267.92L267.71 270.23L268.73 272.5L269.84 274.72L271.01 276.89L272.28 279.02L273.63 281.1L275.05 283.11L276.55 285.07L278.11 286.98L279.76 288.82L281.46 290.6L283.23 292.32L285.07 293.98L286.97 295.55L288.92 297.06L290.95 298.5L293.01 299.85L295.14 301.13L297.31 302.33L299.54 303.45L301.81 304.48L304.12 305.43L306.49 306.27L308.89 307.04L311.32 307.7L313.8 308.27L316.32 308.75L318.85 309.12L321.43 309.39L324.03 309.55L326.66 309.61L329.25 309.55L331.81 309.39L334.36 309.12L336.88 308.75L339.37 308.27L341.81 307.7L344.24 307.04L346.63 306.27L348.98 305.43L351.29 304.48L353.55 303.45L355.77 302.33L357.95 301.13L360.08 299.85L362.15 298.5L364.17 297.06L366.12 295.55L368.03 293.98L369.88 292.32L371.67 290.6L373.38 288.82L375.03 286.98L376.6 285.07L378.11 283.11L379.55 281.1L380.91 279.02L382.19 276.89L383.39 274.72L384.5 272.5L385.54 270.23L386.48 267.92L387.33 265.58L388.09 263.19L388.76 260.76L389.33 258.31L389.8 255.83L390.18 253.3L390.44 250.76L390.6 248.19L390.66 245.61L390.6 243.02L390.44 240.44L390.18 237.91L389.8 235.39L389.33 232.9L388.76 230.44L388.09 228.02L387.33 225.64L386.48 223.29L385.54 220.98L384.5 218.72L383.39 216.49L382.19 214.32L380.91 212.19L379.55 210.12L378.11 208.1L376.6 206.14L375.03 204.24L373.38 202.39L371.67 200.6L369.88 198.89L368.03 197.24L366.12 195.66L364.17 194.15L362.15 192.72L360.08 191.36L357.95 190.08L355.77 188.88L353.55 187.77L351.29 186.73L348.98 185.79L346.63 184.94L344.24 184.17L341.81 183.51L339.37 182.94L336.88 182.47L334.36 182.09L331.81 181.83L329.25 181.67L326.66 181.61L324.07 181.67L321.51 181.83Z" id="dsngKtrsY"></path>
  </defs>
  <g>
    <g>
      <g>
        <use xlink:href="#m1VKLL269o" opacity="1" fill="#24292e" fill-opacity="1"></use>
        <g>
          <use xlink:href="#m1VKLL269o" opacity="1" fill-opacity="0" stroke="#24292e" stroke-width="0" stroke-opacity="0"></use>
        </g>
      </g>
      <g>
        <use xlink:href="#dsngKtrsY" opacity="1" fill="#24292e" fill-opacity="0"></use>
        <g>
          <use xlink:href="#dsngKtrsY" opacity="1" fill-opacity="0" stroke="#24292e" stroke-width="1" stroke-opacity="0"></use>
        </g>
      </g>
    </g>
  </g>
</svg>
