<?xml version="1.0"?>
<svg width="1024" height="1024" xmlns="http://www.w3.org/2000/svg" xmlns:svg="http://www.w3.org/2000/svg" xmlns:xlink="http://www.w3.org/1999/xlink" style="background-color:#fff">
 <defs>
  <symbol height="16" id="svg_1" viewBox="0 0 12 16" width="12" xmlns="http://www.w3.org/2000/svg">
   <path d="m11,11.28l0,-6.28c-0.03,-0.78 -0.34,-1.47 -0.94,-2.06c-0.6,-0.59 -1.28,-0.91 -2.06,-0.94l-1,0l0,-2l-3,3l3,3l0,-2l1,0c0.27,0.02 0.48,0.11 0.69,0.31c0.21,0.2 0.3,0.42 0.31,0.69l0,6.28a1.993,1.993 0 0 0 1,3.72a1.993,1.993 0 0 0 1,-3.72zm-1,2.92c-0.66,0 -1.2,-0.55 -1.2,-1.2c0,-0.65 0.55,-1.2 1.2,-1.2c0.65,0 1.2,0.55 1.2,1.2c0,0.65 -0.55,1.2 -1.2,1.2zm-6,-11.2c0,-1.11 -0.89,-2 -2,-2a1.993,1.993 0 0 0 -1,3.72l0,6.56a1.993,1.993 0 0 0 1,3.72a1.993,1.993 0 0 0 1,-3.72l0,-6.56c0.59,-0.34 1,-0.98 1,-1.72zm-0.8,10c0,0.66 -0.55,1.2 -1.2,1.2c-0.65,0 -1.2,-0.55 -1.2,-1.2c0,-0.65 0.55,-1.2 1.2,-1.2c0.65,0 1.2,0.55 1.2,1.2zm-1.2,-8.8c-0.66,0 -1.2,-0.55 -1.2,-1.2c0,-0.65 0.55,-1.2 1.2,-1.2c0.65,0 1.2,0.55 1.2,1.2c0,0.65 -0.55,1.2 -1.2,1.2z" fill-rule="evenodd" fill="#24292e" />
  </symbol>
 </defs>
 <g class="layer">
  <title>Layer 1</title>
  <use id="svg_2" transform="matrix(0.714235 0 0 0.714235 1156.3 1440.74)" x="-1414.084166" xlink:href="#svg_1" y="-1780.328663"/>
  <g id="svg_3"/>
 </g>
</svg>
