<?xml version="1.0" encoding="UTF-8" standalone="no"?>
<!DOCTYPE svg PUBLIC "-//W3C//DTD SVG 1.1//EN" "http://www.w3.org/Graphics/SVG/1.1/DTD/svg11.dtd">
<svg version="1.1" xmlns="http://www.w3.org/2000/svg" xmlns:xlink="http://www.w3.org/1999/xlink" preserveAspectRatio="xMidYMid meet" viewBox="0 0 1024 1024" width="1024" height="1024"><defs><path d="M1024 0L1024 1024L0 1024L0 0L1024 0Z" id="bgHlqk6SE"></path><path d="M343.46 131.5L345.92 131.64L348.36 131.82L350.8 132.07L353.23 132.35L355.65 132.72L358.05 133.12L360.44 133.57L362.82 134.09L365.18 134.66L367.53 135.27L369.86 135.94L372.17 136.66L374.46 137.42L376.74 138.25L378.99 139.13L381.23 140.05L383.44 141.02L385.63 142.04L387.8 143.1L389.94 144.22L392.06 145.38L394.15 146.6L396.21 147.85L398.25 149.16L400.26 150.51L402.24 151.91L404.19 153.35L406.11 154.84L408 156.37L409.86 157.94L411.68 159.56L413.47 161.23L415.22 162.92L416.94 164.68L418.62 166.47L420.26 168.31L421.87 170.18L423.43 172.1L426.15 175.64L428.7 179.26L431.08 182.95L433.29 186.7L435.34 190.52L437.22 194.39L438.94 198.31L440.49 202.28L441.87 206.29L443.1 210.34L444.16 214.41L445.06 218.52L445.79 222.64L446.37 226.78L446.78 230.94L447.03 235.1L447.13 239.26L447.06 243.42L446.84 247.57L446.45 251.71L445.91 255.83L445.22 259.93L444.36 264.01L443.35 268.03L442.19 272.05L440.87 276.01L439.39 279.92L437.77 283.78L435.98 287.58L434.05 291.33L431.96 295.01L429.73 298.61L427.34 302.14L424.8 305.58L422.11 308.95L419.27 312.22L416.28 315.39L413.15 318.46L409.86 321.43L406.43 324.28L408.06 327.69L409.76 331.13L411.52 334.6L413.36 338.11L415.26 341.64L417.22 345.2L419.25 348.77L421.34 352.37L423.48 355.98L425.69 359.6L427.95 363.22L430.26 366.86L432.62 370.49L435.03 374.12L437.49 377.74L440 381.36L442.55 384.96L445.14 388.55L447.77 392.12L450.44 395.67L453.15 399.19L455.89 402.68L458.67 406.14L461.48 409.57L464.31 412.96L467.17 416.3L470.06 419.6L472.98 422.85L475.91 426.05L478.87 429.19L481.84 432.28L484.83 435.3L487.83 438.26L490.85 441.15L493.88 443.97L496.92 446.71L499.96 449.37L503.01 451.96L506.07 454.45L509.12 456.86L512.66 459.52L516.28 462.11L519.95 464.64L523.7 467.1L527.51 469.49L531.37 471.83L535.3 474.09L539.28 476.29L543.31 478.43L547.39 480.5L551.51 482.5L555.68 484.44L559.89 486.32L564.14 488.13L568.42 489.87L572.74 491.55L577.09 493.16L581.46 494.71L585.86 496.19L590.28 497.61L594.72 498.96L599.18 500.25L603.65 501.47L608.14 502.63L612.63 503.72L617.12 504.75L621.62 505.71L626.13 506.61L630.62 507.44L635.12 508.21L639.6 508.91L644.08 509.54L648.54 510.11L652.99 510.62L657.42 511.06L661.82 511.43L666.21 511.74L670.56 511.99L674.89 512.17L679.19 512.28L679.19 513.37L680.64 510.9L682.16 508.48L683.74 506.1L685.37 503.76L687.06 501.47L688.8 499.23L690.6 497.03L692.46 494.88L694.36 492.78L696.32 490.73L698.32 488.73L700.38 486.78L702.48 484.89L704.63 483.05L706.83 481.27L709.07 479.54L711.35 477.87L713.67 476.27L716.04 474.72L718.44 473.23L720.89 471.8L723.37 470.44L725.89 469.14L728.44 467.91L731.03 466.74L733.65 465.65L736.3 464.62L738.98 463.65L741.7 462.77L744.44 461.95L747.21 461.2L750 460.53L752.82 459.93L755.67 459.41L758.54 458.97L761.43 458.61L764.34 458.32L767.27 458.11L770.22 457.99L773.18 457.95L777.68 458.04L782.14 458.31L786.54 458.75L790.88 459.36L795.17 460.14L799.39 461.09L803.55 462.2L807.64 463.46L811.66 464.88L815.61 466.45L819.47 468.16L823.25 470.02L826.95 472.02L830.56 474.16L834.07 476.43L837.49 478.83L840.81 481.36L844.02 484.01L847.13 486.78L850.13 489.67L853.02 492.67L855.79 495.78L858.44 498.99L860.97 502.31L863.37 505.73L865.64 509.24L867.78 512.85L869.78 516.54L871.64 520.33L873.35 524.18L874.92 528.14L876.34 532.15L877.6 536.25L878.71 540.41L879.65 544.63L880.44 548.92L881.05 553.26L881.49 557.66L881.76 562.11L881.85 566.61L881.76 571.12L881.49 575.56L881.05 579.97L880.44 584.31L879.65 588.6L878.71 592.81L877.6 596.98L876.34 601.08L874.92 605.09L873.35 609.04L871.64 612.9L869.78 616.68L867.78 620.38L865.64 623.99L863.37 627.5L860.97 630.92L858.44 634.24L855.79 637.45L853.02 640.56L850.13 643.56L847.13 646.45L844.02 649.22L840.81 651.87L837.49 654.4L834.07 656.8L830.56 659.07L826.95 661.21L823.25 663.21L819.47 665.07L815.61 666.78L811.66 668.35L807.64 669.77L803.55 671.03L799.39 672.14L795.17 673.09L790.88 673.87L786.54 674.48L782.14 674.92L777.68 675.19L773.18 675.28L770.22 675.24L767.27 675.12L764.35 674.91L761.44 674.62L758.56 674.26L755.7 673.82L752.86 673.3L750.05 672.7L747.27 672.03L744.51 671.28L741.79 670.46L739.09 669.58L736.42 668.61L733.78 667.58L731.17 666.49L728.6 665.32L726.05 664.09L723.55 662.79L721.08 661.43L718.65 660L716.25 658.51L713.89 656.96L711.58 655.36L709.3 653.69L707.07 651.96L704.87 650.18L702.72 648.34L700.62 646.45L698.56 644.5L696.55 642.5L694.58 640.45L692.67 638.35L690.8 636.2L688.98 634L687.21 631.76L685.5 629.47L683.84 627.13L682.23 624.75L680.68 622.33L679.19 619.86L679.19 620.95L675.33 620.89L671.44 620.79L667.5 620.64L663.52 620.46L659.51 620.23L655.46 619.97L651.38 619.66L647.28 619.31L643.15 618.93L639 618.49L634.83 618.02L630.64 617.51L626.44 616.96L622.23 616.36L618 615.72L613.78 615.04L609.55 614.33L605.32 613.56L601.09 612.76L596.87 611.92L592.66 611.03L588.46 610.1L584.27 609.13L580.1 608.12L575.94 607.06L571.81 605.97L567.71 604.83L563.63 603.65L559.58 602.42L555.56 601.16L551.58 599.85L547.64 598.5L543.74 597.11L539.88 595.68L536.07 594.2L532.31 592.68L528.6 591.12L524.95 589.51L521.35 587.87L517.82 586.17L514.32 584.45L510.84 582.69L507.39 580.9L503.95 579.09L500.52 577.24L497.12 575.36L493.74 573.45L490.37 571.51L487.03 569.54L483.7 567.54L480.39 565.52L477.1 563.47L473.83 561.38L470.57 559.27L467.34 557.12L464.13 554.95L460.93 552.75L457.76 550.52L454.6 548.26L451.46 545.97L448.34 543.65L445.25 541.31L442.17 538.92L439.11 536.53L436.07 534.1L433.05 531.64L430.05 529.16L427.07 526.65L424.1 524.1L421.16 521.54L418.24 518.93L415.34 516.31L412.46 513.66L409.6 510.99L406.75 508.28L403.93 505.55L401.13 502.79L398.35 500L395.59 497.19L392.85 494.35L392.85 690.5L395.35 691.98L397.8 693.52L400.2 695.13L402.55 696.79L404.85 698.51L407.09 700.29L409.28 702.12L411.42 704L413.51 705.93L415.53 707.92L417.51 709.95L419.42 712.03L421.28 714.16L423.08 716.34L424.82 718.55L426.51 720.81L428.13 723.12L429.69 725.46L431.19 727.84L432.63 730.26L434 732.72L435.31 735.21L436.55 737.73L437.73 740.29L438.84 742.88L439.89 745.5L440.87 748.15L441.78 750.82L442.62 753.53L443.39 756.25L444.09 759L444.72 761.78L445.27 764.57L445.76 767.39L446.17 770.22L446.5 773.07L446.76 775.93L446.95 778.81L447.06 781.71L447.09 784.62L446.99 789.08L446.71 793.5L446.25 797.86L445.63 802.18L444.83 806.43L443.87 810.63L442.75 814.76L441.48 818.83L440.05 822.82L438.47 826.74L436.74 830.59L434.87 834.35L432.86 838.02L430.71 841.61L428.44 845.11L426.03 848.51L423.49 851.82L420.84 855.02L418.06 858.11L415.17 861.1L412.17 863.98L409.06 866.73L405.84 869.37L402.52 871.89L399.11 874.28L395.6 876.54L392 878.67L388.31 880.66L384.54 882.51L380.69 884.22L376.76 885.78L372.76 887.18L368.69 888.44L364.55 889.54L360.35 890.47L356.08 891.24L351.77 891.85L347.4 892.28L342.98 892.54L338.52 892.61L334.02 892.52L329.56 892.26L325.16 891.81L320.82 891.2L316.53 890.42L312.31 889.47L308.15 888.37L304.06 887.1L300.04 885.69L296.09 884.12L292.23 882.4L288.45 880.54L284.75 878.54L281.14 876.4L277.63 874.13L274.21 871.73L270.89 869.21L267.68 866.56L264.57 863.78L261.57 860.9L258.68 857.9L255.91 854.79L253.26 851.57L250.73 848.25L248.33 844.83L246.06 841.32L243.92 837.71L241.92 834.02L240.06 830.24L238.35 826.37L236.78 822.43L235.36 818.41L234.1 814.32L232.99 810.16L232.05 805.93L231.26 801.65L230.65 797.3L230.21 792.9L229.94 788.45L229.85 783.95L229.89 780.98L230.02 778.04L230.22 775.11L230.51 772.21L230.87 769.33L231.31 766.47L231.83 763.63L232.42 760.82L233.09 758.04L233.83 755.29L234.64 752.56L235.53 749.87L236.48 747.2L237.5 744.56L238.59 741.96L239.74 739.4L240.96 736.86L242.24 734.36L243.59 731.9L245 729.48L246.46 727.09L247.99 724.75L249.57 722.45L251.21 720.18L252.9 717.96L254.65 715.79L256.46 713.66L258.31 711.57L260.22 709.53L262.17 707.54L264.17 705.6L266.22 703.71L268.32 701.87L270.46 700.08L272.64 698.34L274.87 696.66L277.14 695.04L279.45 693.46L281.8 691.95L284.18 690.49L284.18 334.07L281.7 332.59L279.27 331.05L276.88 329.46L274.55 327.81L272.26 326.09L270.03 324.33L267.85 322.51L265.72 320.64L263.65 318.72L261.63 316.75L259.66 314.73L257.75 312.67L255.9 310.55L254.1 308.4L252.37 306.2L250.69 303.95L249.07 301.67L247.51 299.33L246.01 296.98L244.57 294.58L243.2 292.14L241.88 289.67L240.64 287.16L239.45 284.62L238.33 282.05L237.28 279.46L236.29 276.83L235.37 274.17L234.52 271.49L233.74 268.77L233.02 266.05L232.38 263.3L231.81 260.52L231.31 257.73L230.88 254.92L230.53 252.09L230.24 249.24L230.04 246.38L229.91 243.5L229.85 240.61L229.94 236.11L230.21 231.66L230.65 227.25L231.26 222.9L232.05 218.61L232.99 214.37L234.1 210.2L235.36 206.1L236.78 202.07L238.35 198.11L240.06 194.23L241.92 190.43L243.92 186.72L246.06 183.09L248.33 179.56L250.73 176.12L253.26 172.78L255.91 169.54L258.68 166.41L261.57 163.39L264.57 160.48L267.68 157.7L270.89 155.02L274.21 152.48L277.63 150.06L281.14 147.77L284.75 145.6L288.45 143.6L292.23 141.72L296.09 139.98L300.04 138.39L304.06 136.97L308.15 135.7L312.31 134.57L316.53 133.62L320.82 132.82L325.16 132.2L329.56 131.77L334.02 131.5L338.52 131.39L340.99 131.42L343.46 131.5ZM333.26 718.97L330.67 719.24L328.11 719.62L325.58 720.1L323.07 720.68L320.61 721.36L318.17 722.14L315.78 723.01L313.43 723.97L311.12 725.02L308.86 726.16L306.64 727.38L304.48 728.68L302.37 730.07L300.31 731.53L298.31 733.06L296.37 734.67L294.49 736.36L292.67 738.1L290.92 739.92L289.24 741.8L287.63 743.74L286.1 745.74L284.63 747.8L283.25 749.91L281.95 752.08L280.73 754.29L279.59 756.55L278.54 758.86L277.58 761.21L276.71 763.61L275.93 766.04L275.25 768.51L274.67 771.01L274.19 773.54L273.81 776.1L273.54 778.69L273.37 781.31L273.32 783.95L273.37 786.59L273.54 789.2L273.81 791.79L274.19 794.36L274.67 796.89L275.25 799.39L275.93 801.86L276.71 804.29L277.58 806.68L278.54 809.04L279.59 811.34L280.73 813.61L281.95 815.82L283.25 817.99L284.63 820.1L286.1 822.16L287.63 824.16L289.24 826.1L290.92 827.98L292.67 829.79L294.49 831.54L296.37 833.22L298.31 834.83L300.31 836.37L302.37 837.83L304.48 839.21L306.64 840.52L308.86 841.74L311.12 842.88L313.43 843.93L315.78 844.89L318.17 845.76L320.61 846.53L323.07 847.21L325.58 847.8L328.11 848.28L330.67 848.65L333.26 848.93L335.88 849.09L338.52 849.15L341.15 849.09L343.77 848.93L346.36 848.66L348.92 848.29L351.46 847.82L353.96 847.24L356.43 846.58L358.86 845.81L361.25 844.95L363.6 844L365.91 842.97L368.17 841.84L370.39 840.63L372.55 839.34L374.67 837.97L376.72 836.53L378.72 835L380.67 833.4L382.54 831.73L384.36 830L386.11 828.19L387.79 826.32L389.4 824.39L390.94 822.39L392.4 820.34L393.78 818.23L395.09 816.06L396.31 813.85L397.45 811.58L398.5 809.26L399.46 806.9L400.33 804.5L401.1 802.05L401.78 799.57L402.36 797.05L402.84 794.49L403.22 791.9L403.5 789.28L403.66 786.63L403.72 783.95L403.66 781.31L403.5 778.69L403.22 776.1L402.84 773.54L402.36 771.01L401.78 768.51L401.1 766.04L400.33 763.61L399.46 761.21L398.5 758.86L397.45 756.55L396.31 754.29L395.09 752.08L393.78 749.91L392.4 747.8L390.94 745.74L389.4 743.74L387.79 741.8L386.11 739.92L384.36 738.1L382.54 736.36L380.67 734.67L378.72 733.06L376.72 731.53L374.67 730.07L372.55 728.68L370.39 727.38L368.17 726.16L365.91 725.02L363.6 723.97L361.25 723.01L358.86 722.14L356.43 721.36L353.96 720.68L351.46 720.1L348.92 719.62L346.36 719.24L343.77 718.97L341.15 718.8L338.52 718.75L335.88 718.8L333.26 718.97ZM767.93 501.64L765.34 501.91L762.78 502.29L760.24 502.77L757.74 503.35L755.27 504.03L752.84 504.81L750.45 505.68L748.1 506.64L745.79 507.69L743.53 508.82L741.31 510.04L739.15 511.35L737.03 512.73L734.98 514.18L732.98 515.73L731.03 517.34L729.16 519.02L727.34 520.77L725.59 522.59L723.91 524.47L722.3 526.41L720.76 528.41L719.3 530.47L717.92 532.58L716.61 534.74L715.39 536.96L714.25 539.22L713.2 541.53L712.24 543.88L711.37 546.27L710.6 548.7L709.92 551.17L709.34 553.67L708.86 556.21L708.48 558.77L708.2 561.36L708.04 563.98L707.98 566.61L708.04 569.25L708.2 571.87L708.47 574.46L708.84 577.02L709.31 579.56L709.89 582.06L710.56 584.53L711.32 586.96L712.18 589.35L713.13 591.7L714.17 594.01L715.29 596.27L716.5 598.49L717.79 600.65L719.16 602.76L720.61 604.81L722.13 606.81L723.73 608.76L725.4 610.64L727.14 612.46L728.94 614.21L730.81 615.89L732.75 617.5L734.74 619.04L736.79 620.5L738.9 621.88L741.07 623.19L743.29 624.41L745.55 625.54L747.87 626.59L750.23 627.54L752.63 628.42L755.08 629.2L757.56 629.88L760.09 630.46L762.64 630.94L765.23 631.31L767.86 631.59L770.51 631.76L773.18 631.81L775.82 631.76L778.44 631.59L781.03 631.31L783.59 630.94L786.12 630.46L788.63 629.88L791.09 629.2L793.53 628.42L795.92 627.54L798.27 626.59L800.58 625.54L802.84 624.41L805.06 623.19L807.22 621.88L809.33 620.5L811.39 619.04L813.39 617.5L815.33 615.89L817.21 614.21L819.03 612.46L820.78 610.64L822.46 608.76L824.07 606.81L825.6 604.81L827.07 602.76L828.45 600.65L829.75 598.49L830.97 596.27L832.11 594.01L833.16 591.7L834.12 589.35L834.99 586.96L835.77 584.53L836.45 582.06L837.03 579.56L837.51 577.02L837.89 574.46L838.16 571.87L838.33 569.25L838.38 566.61L838.33 563.98L838.16 561.36L837.89 558.77L837.51 556.21L837.03 553.67L836.45 551.17L835.77 548.7L834.99 546.27L834.12 543.88L833.16 541.53L832.11 539.22L830.97 536.96L829.75 534.74L828.45 532.58L827.07 530.47L825.6 528.41L824.07 526.41L822.46 524.47L820.78 522.59L819.03 520.77L817.21 519.02L815.33 517.34L813.39 515.73L811.39 514.18L809.33 512.73L807.22 511.35L805.06 510.04L802.84 508.82L800.58 507.69L798.27 506.64L795.92 505.68L793.53 504.81L791.09 504.03L788.63 503.35L786.12 502.77L783.59 502.29L781.03 501.91L778.44 501.64L775.82 501.47L773.18 501.41L770.55 501.47L767.93 501.64ZM333.26 175.64L330.67 175.91L328.11 176.29L325.58 176.77L323.07 177.35L320.61 178.03L318.17 178.81L315.78 179.68L313.43 180.64L311.12 181.69L308.86 182.82L306.64 184.04L304.48 185.35L302.37 186.73L300.31 188.19L298.31 189.73L296.37 191.34L294.49 193.02L292.67 194.77L290.92 196.59L289.24 198.47L287.63 200.41L286.1 202.41L284.63 204.47L283.25 206.58L281.95 208.74L280.73 210.96L279.59 213.22L278.54 215.53L277.58 217.88L276.71 220.27L275.93 222.7L275.25 225.17L274.67 227.67L274.19 230.21L273.81 232.77L273.54 235.36L273.37 237.98L273.32 240.61L273.37 243.25L273.53 245.87L273.8 248.46L274.17 251.02L274.65 253.56L275.22 256.06L275.89 258.52L276.65 260.96L277.51 263.34L278.46 265.7L279.5 268.01L280.62 270.27L281.83 272.49L283.12 274.65L284.49 276.76L285.94 278.82L287.46 280.82L289.06 282.76L290.73 284.64L292.47 286.46L294.28 288.21L296.15 289.89L298.08 291.5L300.07 293.03L302.13 294.5L304.24 295.88L306.4 297.19L308.62 298.41L310.89 299.53L313.2 300.58L315.56 301.55L317.97 302.42L320.41 303.2L322.9 303.88L325.42 304.46L327.98 304.94L330.57 305.32L333.19 305.58L335.84 305.76L338.52 305.81L341.15 305.76L343.77 305.58L346.36 305.32L348.92 304.94L351.46 304.46L353.96 303.88L356.43 303.2L358.86 302.42L361.25 301.55L363.6 300.58L365.91 299.53L368.17 298.41L370.39 297.19L372.55 295.88L374.67 294.5L376.72 293.03L378.72 291.5L380.67 289.89L382.54 288.21L384.36 286.46L386.11 284.64L387.79 282.76L389.4 280.82L390.94 278.82L392.4 276.76L393.78 274.65L395.09 272.49L396.31 270.27L397.45 268.01L398.5 265.7L399.46 263.34L400.33 260.96L401.1 258.52L401.78 256.06L402.36 253.56L402.84 251.02L403.22 248.46L403.5 245.87L403.66 243.25L403.72 240.61L403.66 237.98L403.5 235.36L403.22 232.77L402.84 230.21L402.36 227.67L401.78 225.17L401.1 222.7L400.33 220.27L399.46 217.88L398.5 215.53L397.45 213.22L396.31 210.96L395.09 208.74L393.78 206.58L392.4 204.47L390.94 202.41L389.4 200.41L387.79 198.47L386.11 196.59L384.36 194.77L382.54 193.02L380.67 191.34L378.72 189.73L376.72 188.19L374.67 186.73L372.55 185.35L370.39 184.04L368.17 182.82L365.91 181.69L363.6 180.64L361.25 179.68L358.86 178.81L356.43 178.03L353.96 177.35L351.46 176.77L348.92 176.29L346.36 175.91L343.77 175.64L341.15 175.47L338.52 175.41L335.88 175.47L333.26 175.64Z" id="c2wFd2x6mM"></path></defs><g><g><g><use xlink:href="#bgHlqk6SE" opacity="1" fill="#ffffff" fill-opacity="1"></use><g><use xlink:href="#bgHlqk6SE" opacity="1" fill-opacity="0" stroke="#000000" stroke-width="1" stroke-opacity="0"></use></g></g><g><use xlink:href="#c2wFd2x6mM" opacity="1" fill="#24292e" fill-opacity="1"></use></g></g></g></svg>